<?xml version="1.0" encoding="UTF-8"?>
<svg id="Laag_1" xmlns="http://www.w3.org/2000/svg" viewBox="0 0 132.28 92.88">
  <defs>
    <style>
      .cls-1 {
        fill: #b1bfaf;
      }
    </style>
  </defs>
  <g>
    <path class="cls-1" d="M77.86,29.3s-1.19-2.6-3.74-1.46c-2.55,1.14-1.66,3.07-1.66,3.07l8.33,21.71s-7.7,3.57-4.56,10.53l23.95-10.32c-2.64-5.47-7.93-4.61-11.92-3.09l-10.39-20.43Z"/>
    <path class="cls-1" d="M102.35,56.71l-4.82,2.61s3.72,6.4,7.89,8.6c4.17,2.2,11.12,5.53,16.02,5.75-1.99,2.48-5.89,4.97-5.89,4.97,0,0-4.99-1.7-7.09-3.69.78,3.12,3.83,5.46,3.83,5.46,0,0-4.75,2.98-6.24,3.12-1.49.14-8.51-3.48-11.64-6.67.64,4.26,4.9,8.8,4.9,8.8,0,0-4.26,1.28-6.81,1.49-4.28-5.74-9.29-17.95-10.07-20.79-2.55.78-5.32,1.84-5.32,1.84,0,0,8.48,22.63,12.56,24.66,12.05.55,39.9-10.95,42.62-24.97-8.77,4.17-27.04-4.37-29.92-11.18Z"/>
  </g>
  <path class="cls-1" d="M67.1,13.44C67.32-4.54-.98-4.51.01,13.72c2.98,14.74,9.29,43.99,11.88,58.76,2.06,13.42,30.23,12.46,38.96,6.7,1.73-1.17,4.23-2.96,4.43-6.71l-.06.59,11.88-59.63ZM16.69,5.95c13.33-3.44,28.83-3.24,41.27,3.03,1.58.69,3.73,2.76,3.98,3.94,0,0-.12.56-.33,1.55h0c-.34.13-.39.17-.63.44-10.68,8.63-46.84,8.74-55.61-.92-.02-.01-.03-.03-.03-.05-.09-.39-.16-.67-.19-.8.64-3.62,7.83-6.12,11.54-7.19ZM5.41,14.22s-.01-.06-.02-.09c.01.04,0,.02.02.08h0ZM49.47,71.89s-.19.66-.06.59c-4.63,6.23-27.02,6.25-31.65,0l-.03.42c0-.6-.05-1.32-.13-1.83-1.53-8.1-4.27-20.67-6.04-28.85.07.41-2.48-11.4-4.39-20.13,13.11,7.23,39.79,7.4,52.86-.08-3.5,16.55-10.55,49.87-10.55,49.87Z"/>
</svg>