<?xml version="1.0" encoding="UTF-8"?>
<svg xmlns="http://www.w3.org/2000/svg" version="1.1" viewBox="0 0 50 50">
  <defs>
    <style> 
    <!-- @import url('./css/cleaner.css") -->
      .cls-1 {
        fill: #b2c0b0;
      } 
    </style>
  </defs>
  <!-- Generator: Adobe Illustrator 28.7.1, SVG Export Plug-In . SVG Version: 1.2.0 Build 142)  -->
  <g>
    <g id="Laag_1">
      <g>
        <g>
          <path class="cls-1" d="M29.33,20.58s-.39-.86-1.23-.48-.55,1.01-.55,1.01l2.75,7.16s-2.54,1.18-1.5,3.47l7.9-3.41c-.87-1.8-2.62-1.52-3.93-1.02l-3.43-6.74Z"/>
          <path class="cls-1" d="M37.41,29.63l-1.59.86s1.23,2.11,2.6,2.84,3.67,1.83,5.29,1.9c-.66.82-1.94,1.64-1.94,1.64,0,0-1.65-.56-2.34-1.22.26,1.03,1.26,1.8,1.26,1.8,0,0-1.57.98-2.06,1.03s-2.81-1.15-3.84-2.2c.21,1.4,1.62,2.9,1.62,2.9,0,0-1.4.42-2.25.49-1.41-1.89-3.07-5.92-3.32-6.86-.84.26-1.76.61-1.76.61,0,0,2.8,7.47,4.14,8.14,3.98.18,13.17-3.61,14.06-8.24-2.9,1.37-8.92-1.44-9.87-3.69Z"/>
        </g>
        <path class="cls-1" d="M25.78,15.35c.07-5.93-22.47-5.92-22.14.09.98,4.86,3.06,14.51,3.92,19.39.68,4.43,9.97,4.11,12.85,2.21.57-.39,1.4-.98,1.46-2.21l-.02.19,3.92-19.68ZM9.14,12.88c4.4-1.13,9.51-1.07,13.62,1,.52.23,1.23.91,1.31,1.3,0,0-.04.18-.11.51h0c-.11.04-.13.06-.21.14-3.53,2.85-15.45,2.89-18.35-.3,0,0,0-.01-.01-.02-.03-.13-.05-.22-.06-.26.21-1.19,2.58-2.02,3.81-2.37ZM5.42,15.61s0-.02,0-.03c0,.01,0,0,0,.03h0ZM19.96,34.64s-.06.22-.02.2c-1.53,2.06-8.92,2.06-10.44,0v.14c0-.2-.03-.43-.05-.6-.51-2.67-1.41-6.82-1.99-9.52.02.14-.82-3.76-1.45-6.64,4.33,2.39,13.13,2.44,17.44-.03-1.16,5.46-3.48,16.45-3.48,16.45Z"/>
      </g>
    </g>
  </g>
</svg>